<?xml version="1.0" encoding="UTF-8"?>
<!DOCTYPE svg PUBLIC "-//W3C//DTD SVG 1.1//EN" "http://www.w3.org/Graphics/SVG/1.1/DTD/svg11.dtd">
<!-- Creator: CorelDRAW Standard 2024 -->
<svg xmlns="http://www.w3.org/2000/svg" xml:space="preserve" width="9.8842in" height="9.62884in" version="1.1" style="shape-rendering:geometricPrecision; text-rendering:geometricPrecision; image-rendering:optimizeQuality; fill-rule:evenodd; clip-rule:evenodd"
viewBox="0 0 9884.2 9628.83"
 xmlns:xlink="http://www.w3.org/1999/xlink"
 xmlns:xodm="http://www.corel.com/coreldraw/odm/2003">
 <defs>
  <style type="text/css">
   <![CDATA[
    .fil2 {fill:none}
    .fil0 {fill:#EB1E35}
    .fil1 {fill:white}
    .fil3 {fill:#FEB300;fill-rule:nonzero}
   ]]>
  </style>
 </defs>
 <g id="Layer_x0020_1">
  <metadata id="CorelCorpID_0Corel-Layer"/>
  <path class="fil0" d="M1997.94 2232.54c2.27,-2.49 34.81,-65.99 43.5,-81.75 79.45,-143.92 167.39,-278.46 262.46,-410.07 75.64,-104.7 42.26,-51.19 -3.03,-162.88 -88.48,11.46 -623.61,315.9 -729.38,379.68 -186.71,112.59 -320.89,221.3 -483.72,345.83 -133.2,101.87 -234.98,224.56 -358.11,336.94 -82.45,75.27 -237.31,281.46 -312.35,375.3 -75.04,93.84 -156.37,220.97 -222.27,330.83 -39.99,66.67 -178.21,288.88 -195.04,343.85 29.05,-28.99 162.74,-102.58 215.71,-129.32 219.22,-110.67 543.95,-220.18 792.45,-241.11 -10.06,30.48 -47.12,81.95 -66.31,115.7 -170.04,298.99 -247.83,616.2 -248.5,968.9 -0.26,138.59 62.77,633.87 119.55,725.94 -1.52,-300.02 6.27,-497.42 88.34,-778.4 36.82,-126.06 180.75,-511.84 261.98,-596.97 0.15,89.48 -27.19,228.02 -33.5,328.74 -24.25,386.77 -16.99,798.86 73.07,1171.27 23.35,96.55 150.91,569.04 212.42,670.52 9.87,16.28 1.35,4.7 11.93,15.07 -3.98,-156.19 -4.09,-296.73 12.12,-452.53 7.71,-74.12 45.11,-339.39 74.7,-386.89 28.77,98.16 45.33,209.37 76,311.27 82.74,274.88 196.4,566.21 336.08,808 316.24,547.39 515.97,789.17 900.44,1207.16 89.3,97.08 192.35,194.79 287.64,280.38 17.84,16.03 30.98,32.89 48.42,48.6l149.68 134.33c140.01,132.56 375.97,312.7 531.27,425.46 35.03,25.42 72.03,54.22 107.39,79.45 49.63,35.42 169.9,132.46 220.17,154.09 -59.15,-59.67 -117.63,-165.85 -163,-241.29 -289.4,-481.25 -368.59,-1107.48 -83.42,-1613.94 90.1,-160.02 119.26,-168.36 228.09,-287.54 19.5,-21.36 30.45,-26.06 53.34,-43.83 40.06,-31.1 73.09,-50.56 118.35,-82.93 -43.06,-72.81 -230.25,-130.48 -302.89,-137.19 -372.75,-34.46 -558.55,301.44 -644.48,646.98 -44.2,-67.14 -13.68,-391.59 -5.45,-455.12 32.73,-252.67 125.29,-511.97 271.17,-706.89l114.13 -132.56c35.8,-43.79 83.36,-72.67 124.68,-112.15 -86.23,-103.24 -513.51,-205.94 -636.46,-159.95 -26.82,10.03 -123.94,104.66 -142.72,125.86 -197.13,222.42 -267.51,429.21 -339,729.96 -52.42,-64.26 -84.94,-450.13 -85.35,-561.3 -1.02,-270.03 64.46,-580.07 148.22,-810.05 113.9,-312.72 318.93,-559.62 336.42,-605.31 -317.54,20.85 -486.82,53.25 -745.33,173.37 -160.6,74.62 -282.15,166.01 -407.39,272.36 -30.45,25.86 -86.54,93.56 -116.56,111.39 13.99,-102.5 101.11,-306.77 142.95,-398.65 165.99,-364.52 363.8,-584.04 587.81,-877.34 17.99,-23.56 41.35,-46.34 53.09,-70.32 -77.35,16.16 -258.4,115.64 -328.87,153.36 -158.08,84.6 -296.55,181.57 -431.48,285.98l-129.68 109.42c-41.75,42.46 -80.2,70.6 -121.8,117.4 -26.54,29.85 -82.96,102.61 -110.92,124.41 51.21,-266.63 258.67,-666.82 395.52,-908.49 33.19,-58.63 146.44,-224.7 162.34,-268.83 -238.36,77.88 -480.02,244.2 -662.11,396.74l-182.62 170.7c18.26,-63.4 81.04,-178.06 109.52,-236.83 106.39,-219.54 261.39,-421.16 409.32,-599.17 28.68,-34.52 48.95,-57.24 81.2,-90.76 28.46,-29.57 45.57,-52.81 78.53,-85.81 137.31,-137.48 281.25,-283.91 438.41,-406.17 25.02,-19.46 64.91,-51.71 86.17,-72.8 -87.07,-0.08 -433.15,188.39 -472.85,229.84l0.01 0.02z"/>
  <path class="fil0" d="M7051.15 3744.68c0.94,-1.59 3.55,2.37 5.18,3.74 -75.44,-2.52 -201.73,-28.7 -263.93,5.8 54.27,41.17 260.41,111.61 431.21,275.24 -108.46,-26.4 -244.8,-129.98 -559.56,-163.63 -119.17,-12.74 -225.82,-9.67 -343.68,7.7 -48.58,7.16 -277.8,46.59 -298.47,59.33 375.31,122.39 904.18,346.31 1247.46,538.87 130.91,73.43 246.52,151.99 359.7,230.87 61.28,42.71 115.77,87.61 174.57,124.31 282.13,176.04 830.83,305.87 1164.26,322.52 112.25,5.6 148.57,-15.15 235.24,-60.24 62.21,-32.37 129.56,-72.07 177.45,-113.59 -188.26,-17.81 -592.95,-182.87 -785.76,-247.05 56.57,1.55 432.63,72.16 608.83,84.91 -19.51,-34.55 -86.46,-103.94 -116.52,-141.19 -39.25,-48.63 -81.87,-91.9 -122.61,-139.03l-254.67 -265.35c41,14.33 397.63,256.65 409.68,273.62 -2.97,-40.62 -81.95,-263.04 -101.44,-308.51 -26.55,-61.94 -170.75,-130.83 -240.05,-170.54 -368.34,-211.02 -753.35,-388.16 -1186.57,-472.96 -256.22,-50.16 -414.2,-39.05 -625.41,100.33l-25.46 19.55 28.43 9.07c9.11,2.27 20.52,4.5 30.81,6.95 6.06,1.44 25,6.06 29.59,7.77l21.72 11.51 0.02 0z"/>
  <path class="fil0" d="M5281.41 5824.8c-5.24,-6.96 -6.6,-10.17 -11.61,-19.09l-60.75 -111.23c-25.92,-48.83 -50.28,-97.64 -78.59,-152.38 -272.48,-526.72 -466.5,-1053.77 -696.82,-1597.8 -46.26,-109.28 -93.02,-214.34 -142.65,-320.57 -38.26,-81.89 -163.75,-152.56 -247.35,-202.8 130.41,-17.42 347.19,23.28 467.61,56.03 118.59,32.24 360.63,126.04 386.45,132.26 -16.19,-26.67 -543.1,-600.67 -572.78,-617.92 -95.21,53.33 -183.32,122.11 -264.55,184.69 -77.89,60 -176.37,132.91 -242.96,198.17 -62.35,61.12 -175.1,139.14 -256.09,184.8l-271.13 148.05c-9.85,5.85 -9.84,6.24 -14.08,9.85l512.93 109.04c29.09,6.91 55.95,13.2 85.02,19.81 83.85,19.07 61.34,9.65 75.61,28.07 -43.74,9.07 -362.92,383.56 -408.6,483.39 375.36,-14.02 587.05,84.02 821.25,323.78 175.68,179.86 348.51,408.35 509.89,626.36 124.55,168.24 526.98,765.5 646.92,997.65l231.06 399.65c-8.62,-136.04 -202,-604.02 -262.5,-749.58 -97.38,-234.28 -218.68,-457.58 -321.59,-687.48 -103.34,-230.83 -222.4,-456.78 -324.13,-692.42 -50.02,-115.85 -106.57,-232.11 -159.21,-348.93 -52.23,-115.93 -104.67,-238.7 -154.34,-343.27 13.03,59.28 154.32,414.08 186.93,497.59 113.74,291.27 259.91,717.39 375.42,984.69l207.15 477.38 -16.5 -17.78 -0.02 -0.03z"/>
  <path class="fil0" d="M5588.04 4730.87c-14.96,-13.19 -227.55,-402.06 -291.8,-454.49 9.31,89.86 48.2,184.09 45.9,279.26 28.24,-9.17 14.72,-12.55 44.11,-17.46 37.15,43.75 68.13,158 74.06,225.6 9.76,111.06 -11.63,169.02 -27.1,266.93 68.9,-53.93 104.05,-204.3 139.88,-222.92 51.54,112.23 75.52,530.21 56.02,667.43 110.63,-18.69 280.67,-86.41 382.15,-91.06 -4.38,39.81 -27.16,107.75 -42.4,140.63 -35.93,77.46 -26.31,56.43 -9.65,146.28 27.19,146.74 0.68,214.61 3.52,347.38 23.94,-38.98 42.02,-135.77 50.05,-186.58 39.89,14.57 101.96,78 125.84,107.34 155.02,190.43 150.91,290.89 135.56,526.97 45.34,-19.48 211.02,-163.87 251.43,-212.28 18.55,-22.23 48.87,-68.86 71.43,-77 38.05,69.15 55.8,203.96 55.62,290.4 -0.27,126 -30.74,186.27 -51.19,295.2 88.37,1.3 140.53,-18.91 227.26,-29.11 42.55,47.16 -19.42,41.09 171.61,54.42 79.57,5.55 137.89,8.58 215.28,-9 -10.57,-23.85 -40.94,-46.85 -58,-64.95 -74.97,-79.53 -243.95,-443.44 -297.68,-546.85 -111.46,-214.51 -215.21,-427.11 -325.02,-646.61 -55,-109.94 -108.92,-214.53 -163.43,-322.5 -67.31,-133.33 -90.04,-197.61 -200.24,-285.45 -147.04,-117.18 -560.41,-360.7 -578.74,-376.03 -4.86,55.54 13.75,143.06 -4.47,194.45z"/>
  <path class="fil0" d="M2599.96 516.45l-240.31 -252.95c-28.59,-34.72 -204.76,-247.26 -234.87,-263.5 11.32,135.85 258.68,1026.41 308.35,1094.44 5.09,-87.41 10.71,-313.73 59.69,-366.16 26.93,79.09 40.95,172.53 68.19,253.09 26.24,77.61 60.77,150.56 92.61,221.38 113.24,251.87 283.88,614.26 478.47,784.61 86.56,75.78 40.76,54.89 236.25,32.77 96.51,-10.93 193.06,-17.94 290,-25.35 -20.03,-21.17 -51.73,-43.65 -74.68,-62.65 -98.28,-81.35 -105.09,-94.4 -181.13,-177.66 -127.79,-139.89 -165.01,-190.7 -275.41,-352.87l581.93 184.43c-67.02,-64.56 -133.64,-128.82 -203.89,-188.48 -72.35,-61.44 -133.81,-127.53 -204.76,-191.41 -140.41,-126.42 -268.69,-255.78 -401.95,-390.28 -19.97,-20.15 -32.54,-31.52 -53.71,-50.98l-145.53 -145.92c-34.94,-35.92 -64.93,-65.74 -99.25,-102.52l0.01 0.01z"/>
  <path class="fil0" d="M5837 6487.26l-135.6 -190.88c10.12,50.46 178.33,505.89 209.72,587.75 37.7,98.36 71.62,192.77 109.78,287.02 19.6,48.42 70.09,64.54 112.93,88.07 44.38,24.39 84.34,44.42 128.15,66.19 270.15,134.2 556.61,299.57 844.11,211.57 14.19,-4.35 26.77,-7.96 40.61,-12.28 1.07,-0.33 14.22,-4.38 16.88,-5.74 33.25,-16.86 152.01,-242.66 157.7,-262.31 -40.23,4.5 -96.84,24.02 -140.95,33.52 -224.91,48.43 -511.03,-9.4 -721.19,-86.88 -120.22,-44.32 -124.88,-50.22 -193.68,-135.33 -123.33,-152.57 -312.78,-408.32 -428.46,-580.7l0 -0z"/>
  <path class="fil1" d="M5170.68 1257.48c-56.81,-37.15 -260.57,-94.98 -342.15,-129.06 -112.92,-47.19 -225.76,-93.4 -338.56,-139.8 -111.51,-45.87 -219.12,-102.15 -331.73,-146.63 -116.03,-45.82 -230.61,-88.64 -337.39,-141.47 -106.3,-52.59 -213.75,-100.12 -320.91,-149.89 -109.22,-50.73 -212.38,-104.13 -321.88,-156.13 -218.57,-103.8 -442.2,-197.13 -642.72,-310.28 16.69,25.02 253.22,172.85 277.75,189.07 534.51,353.55 1781.38,955.89 2357.58,984.16l0.02 0.02z"/>
  <path class="fil1" d="M7432.62 1981.74c-20.76,-75 -139.11,-248.67 -184.15,-314 -33.87,-49.14 -182.47,-237.42 -228.72,-279.5 -106.95,-97.28 -133.39,-139.63 -255.76,-244.98 -289.48,-249.22 -594.91,-419.3 -958.89,-557.94 -120.46,-45.89 -242.11,-92.98 -369.82,-130.91 -108.04,-32.09 -296.89,-90.28 -407.1,-100.5l356.56 142.71c316.36,126.16 743.87,307.18 1025.08,492.54 181.3,119.48 272.27,199.05 421.41,333.49 147.78,133.22 254.08,284.08 363.33,391.6l238.03 267.49 0.02 -0.01z"/>
  <path class="fil1" d="M7294.68 1303.03c1.46,2.02 4.06,13.24 4.97,15.04l903.83 919.55c72.91,59.53 114.24,121.09 166.98,169.62 28.09,25.85 59.46,41.13 71.26,90.06 19.74,81.87 27.14,202.95 49.46,281.9l21.8 -161.04c1.44,-52.39 -0.83,-114.3 -10.48,-165.22 -8.86,-46.69 -41.33,-78.63 -64.89,-106.02 -29.44,-34.22 -44.44,-54.25 -77.9,-86.41 -28.63,-27.51 -53.72,-60.32 -81.87,-89.99l-129.22 -124.89c-15.16,-15.08 -23.1,-28.51 -38.47,-43.56l-132.48 -121.74c-17.08,-14.06 -28.72,-21.63 -44.38,-37.72 -36.02,-37.04 -58.02,-49.35 -89.5,-82.27 -45.57,-47.7 -229.58,-193.79 -272.75,-235.66 -29.85,-28.94 -59.69,-49.35 -90.07,-74.37l-186.27 -147.28 -0.01 -0z"/>
  <path class="fil1" d="M5508.35 4469.68c53.88,-70.07 233.03,-375.21 242.94,-484.9 -27.63,-18.25 -30.85,-30.62 -59.65,-50 -71.76,-48.29 -153.34,-81.62 -246.54,-87.2 -13.89,168.17 17.42,458.11 63.26,622.11l0 -0.01z"/>
  <path class="fil1" d="M6212.3 2478.25c-10.63,168.18 48.29,291.33 148.18,361.34 137.11,96.09 260.02,71.74 431.7,67.56 -20.37,-28.48 -40.74,-44.59 -62.46,-62.84l-206.86 -174.24c-36.73,-28.83 -246.15,-189.15 -310.57,-191.81l0.01 -0z"/>
  <path class="fil1" d="M6260.76 1594.87c24.92,23.5 60.25,48.93 90.79,72.91 100.54,78.93 164.96,147.65 249.22,221.58l324.61 310.76c78.14,80.99 233.83,245.98 302.34,332.94 69.9,88.72 145.74,173.7 207.3,271.23 18.92,29.99 36.5,86.15 51.82,103.27l88.02 -35.27c-45.87,-126.48 -316.65,-426.7 -429.6,-548.24l-205.95 -197.63c-22.37,-25.74 -15.62,-22.08 -40.7,-41.37 -16.6,-12.76 -31.42,-22.95 -45.34,-37.06l-84.92 -79.19c-17,-16.02 -28.41,-20.33 -45.82,-36.63 -83.33,-78.03 -378.11,-300.24 -461.76,-337.3l-0.01 -0.01z"/>
  <path class="fil1" d="M6065.16 6016.54c-10.79,39.56 -67.02,125.12 -90.54,156.96 -61.48,83.2 -97.61,107.57 -76.5,147.71 52.42,99.67 120.19,236.45 186.24,298.2 6.93,-12.03 29.11,-33.44 41.39,-55.06 86.46,-152.18 99.68,-426.4 -60.59,-547.8l-0 -0.01z"/>
  <path class="fil1" d="M7124.15 4946.29c88.24,-65.75 260.82,-167.39 198.51,-243.35 -18.75,-22.85 -59.29,-55.63 -91.58,-72.66 -93.88,-49.5 -131,-61.71 -229.23,-1.59 -4.86,201.67 -35.88,273.63 -77.24,451.73l199.55 -134.13 -0.01 -0z"/>
  <path class="fil1" d="M6357.87 6936.29c148.85,-69.01 192.21,-386.36 190.49,-548.18 -60.32,39.05 -173.01,130.73 -240.24,171.69 -13.96,8.5 -66.52,40.41 -75.69,51.33 -8.44,10.06 -36.78,82.73 -37.24,96.12 -1.23,36.52 138.4,208.37 162.67,229.06l0.01 -0.01z"/>
  <path class="fil1" d="M7083.63 7108.31c85.83,10.04 145.2,7.6 213.23,-30.93 152.09,-86.15 234.22,-346.84 274.82,-514.63l-362.99 291.94 -125.06 253.62 0 -0z"/>
  <path class="fil1" d="M9388.23 3892.81c49.43,24.08 261.39,126 279.25,156.83 -90.23,2.17 -177.26,8.18 -267.75,7.79 -82.6,-0.36 -179.96,-10.28 -258.3,-7.27 9.79,-0.4 137.2,34.02 168.07,40.03 128.55,25.02 505.04,56.05 574.7,8.18 -26.75,-17.02 -54.11,-41.65 -89.41,-66.2 -176.3,-122.65 -546.3,-356.66 -746.88,-248.02 100.94,4.09 257.17,68.15 340.33,108.67l-0.01 -0.01z"/>
  <path class="fil1" d="M6599.17 4815.99c94.58,-19.86 219.17,-116.18 264.13,-197.49 45.09,-81.54 37.45,-114.2 -23.04,-158.11 -39.49,-28.66 -103.92,-61.49 -155.36,-78.19 -6.68,190.9 -65.5,305.7 -85.72,433.79l-0.01 0z"/>
  <path class="fil1" d="M6262.63 4606.38c36.19,-20.93 59.89,-36.8 92.69,-62.55 31.06,-24.37 48.12,-48.98 74.81,-74.35 39.3,-37.35 100.9,-125.86 103.99,-199.2 -40.54,-35.72 -153.5,-87.74 -218,-108.54 -8.65,75.86 -13.04,154.3 -20.19,231.68 -7.06,76.44 -24.22,143.09 -33.31,212.94l0.01 0z"/>
  <path class="fil1" d="M7724.82 974.8c48.58,5.07 47.61,-9.98 86.19,-22.08 -13.49,-70.82 -252.59,-564.45 -304.39,-687.02 -16.4,-38.78 -31.34,-76.17 -48.04,-116.39l-44.07 -119.7c-0.42,-1.02 -1.3,-3.31 -2.17,-4.86 11.63,295.72 223.63,688.25 312.48,950.05z"/>
  <path class="fil1" d="M7714.13 5376.59c36.36,-13.32 111.71,-70.91 140.55,-95.86l125.47 -106.88c25.38,-26.05 16.98,-36.91 -4.99,-69.77 -18.5,-27.67 -31.56,-39.19 -55.48,-56.62 -40.49,-29.5 -107.95,-67.99 -173.2,-47.96 -1.99,135 -5.47,245.08 -32.34,377.09l-0.01 0z"/>
  <path class="fil1" d="M8369.28 3165.04c265.99,137.66 274.42,99.54 545.37,319.34 57.2,46.41 104.24,85.64 148.81,135.48l138.85 -4c-14.72,-18.78 -22.01,-19.78 -38.97,-36.23l-132.89 -113.63c-58.06,-44.94 -120.71,-91.98 -188.68,-132.56 -113.46,-67.74 -319.45,-162.05 -472.5,-168.38l0 -0.02z"/>
  <path class="fil1" d="M5005.06 4251.57c103.95,-52.64 227.58,-255.35 237.41,-344.74 -64.08,18.56 -110.94,29.94 -172.73,54.49 -52.71,20.93 -110.75,51.08 -142.64,84.38 7.37,42.41 55.29,178.37 77.96,205.87z"/>
  <path class="fil1" d="M5308.65 5193.24c16.93,72.82 127.12,261.02 163.3,305.78 44.21,-94.26 69.68,-328.11 58.54,-438.91 -26.26,24.84 -167.95,117.8 -221.83,133.14z"/>
  <path class="fil1" d="M6143.41 4112.97c-76.65,-51.5 -151.18,-79.5 -259.18,-93.76 17.72,123.61 46.47,218.15 50.52,353.93 46.61,-15.96 101.71,-78.37 127.09,-108.04 33.77,-39.48 62.45,-95.73 81.57,-152.14l0 0z"/>
  <path class="fil1" d="M6532.69 7054.97c57.83,32.94 177.19,107.58 232.53,36.61 37.3,-47.83 70.52,-212.71 33.62,-273.81 -99.44,55.57 -232.56,134.35 -266.15,237.2z"/>
  <path class="fil1" d="M5824.79 6172.62c59.77,-121.29 77.15,-283.77 76.46,-432.59 -21.36,14.38 -27.61,26.96 -50.68,48.13 -58.6,53.72 -129.98,80.51 -172.45,111.11 24,55.87 114.01,236.05 146.67,273.35z"/>
  <path class="fil1" d="M6764.18 5603.03c90.04,-125.2 95.27,-211.96 96.28,-362.25l-215.26 131.91c18.25,100.42 72.27,174.09 100.08,252.17l18.91 -21.81 -0 -0.01z"/>
  <path class="fil1" d="M5259.18 5084.73c132.43,-82.85 155.7,-299.77 104.64,-411.56 -36.61,45.67 -97.03,172.07 -188.44,215.57l83.81 196 0 -0z"/>
  <path class="fil1" d="M5630.58 5787.42c111.63,-36.8 217.2,-160.15 255.76,-278.93l-319.34 95.06 63.59 183.85 0 0.01z"/>
  <path class="fil1" d="M6671.77 5295.3c20.76,-14.11 55.94,-62.9 67.83,-82.87 73,-122.64 82.4,-188.54 122.72,-319.87l-208.22 181.95c-19.6,18.15 -45.34,35.91 -69.72,53.51 14.64,62.86 56.72,122.72 87.38,167.28l0.01 -0.01z"/>
  <path class="fil1" d="M6511.27 4634c-45.49,18.64 -128.3,70.38 -168.78,99.33 5.12,100.75 91.18,253.14 143.26,289.73l25.52 -389.06z"/>
  <path class="fil1" d="M6873.57 5934.8c72.06,-42.4 132.63,-180.65 155.67,-272.56l-235.15 45.11c12.14,62.57 47.54,180.76 79.48,227.45l-0 0z"/>
  <path class="fil1" d="M4990.44 4500.68c69.88,-18.69 118.48,-32.52 153.83,-83.72 32.85,-47.56 37.8,-126.21 34.84,-188.92 -19.67,3.72 -30.61,22.62 -51.04,37.98 -109.42,82.29 -151.66,69.23 -194.85,93.96l57.2 140.68 0.01 0.02z"/>
  <path class="fil1" d="M7253.83 6630.47c35.46,-32.05 87.25,-248.49 97.51,-312.16l-216.34 104.13c19.36,90.79 74.79,165.8 118.83,208.03z"/>
  <path class="fil1" d="M7038 6323.51c68.76,-38.72 143.42,-152.83 168.06,-238.23l-242.36 25.11c7.7,51.64 47.48,179.28 74.3,213.12z"/>
  <path class="fil1" d="M5132.12 4776.63c36.68,-25.75 69.03,-63.19 95.15,-112.27 37.29,-70.09 35.31,-82.18 48.93,-166.56l-225.91 86.67 81.85 192.15 -0.01 0.01z"/>
  <path class="fil1" d="M6828.15 7117c125.83,8.69 102.3,45.32 160.85,-63.09 20.68,-38.3 65.98,-134.94 70.99,-178.31l-150.85 9.18c-29.24,133.78 30.81,50.81 -80.99,232.24l0 -0.01z"/>
  <path class="fil1" d="M7228.74 5167.29c127.2,-41.51 288.6,-172.4 354.25,-250.35l-121.3 -40.97 -232.95 291.32z"/>
  <path class="fil0" d="M6202.64 2743.41c-17.42,-30.12 -29.72,-59.56 -43.13,-91.5 -26.57,-63.3 -55.68,-190.07 -66.9,-206.42l-81.11 -6.63c9.54,85 41.67,175.33 79.34,237.01 32.19,52.68 109.42,121.74 161.58,149.2 -10.5,-25.8 -32.6,-51.93 -49.79,-81.66l0.01 -0z"/>
  <path class="fil1" d="M6990.51 5309.45c34.7,-19.96 46.91,-39.48 75.58,-69.69 77.1,-81.2 115.12,-115.2 162.42,-242.72 -20.47,11.78 -41.58,40.16 -59.33,54.24 -22.06,17.5 -43.07,35.78 -66.15,53.66 -45.91,35.59 -85.13,56.63 -141.65,92.06l29.12 112.44 0.01 0z"/>
  <path class="fil1" d="M8100.63 5256.49c18.77,129.56 -3.47,283.14 -43.98,405.28 -20.16,60.81 -48.12,110.04 -66.33,161.2 49.26,-13.41 147.23,-74.25 185.2,-101.94l158.93 -132.16c48.87,-50.13 213.3,-247.21 229.67,-354.78 -40.7,-29.57 -332.48,-114.49 -397.56,-125.58 -20.93,21.56 -36.59,39.64 -56.18,61.96 -29.28,33.36 -16.7,38.12 -9.76,86.03l0.01 -0.02z"/>
  <path class="fil1" d="M8880.89 5340.4c33.5,54.57 -277.02,368.49 -324.32,436.24 183.72,-58.07 350.69,-185.29 434.38,-319.11 17.46,-4.84 6.28,18.44 -11.53,53.21 -54.26,105.95 -221.02,256.18 -332.57,314.39 -7.89,121.11 -117.35,215.87 -172.86,327.33 187.87,-64.26 522.01,-438.71 622.14,-631.41 40.14,-77.25 -32.58,-171.76 -96.36,-200.66l-317.47 -64.22c-31.18,43.37 -132.56,272.76 -163.32,315.96 -8.21,37.8 -1.02,55.63 -26.77,110.98 65.22,8.18 331.28,-241.67 346.41,-363.62 3.13,10.21 33,5.74 42.29,20.87l-0.01 0.02z"/>
  <g id="_1294323083536">
   <path class="fil2" d="M85.88 8506.87l234.31 0 0 1087.9 -234.31 0 0 -1087.9zm725.42 0l234.22 0 0 1087.9 -234.22 0 0 -1087.9zm-396.68 429.19l302.59 0 0 227.96 -302.59 0 0 -227.96zm847 -429.19l234.32 0 0 1087.9 -234.32 0 0 -1087.9zm367.63 860.4l427.64 0 0 227.5 -427.64 0 0 -227.5zm0 -429.65l427.64 0 0 227.95 -427.64 0 0 -227.95zm0 -430.76l427.64 0 0 227.49 -427.64 0 0 -227.49zm630.89 0l234.22 0 0 1087.9 -234.22 0 0 -1087.9zm335.12 860.4l315.55 0 0 227.5 -315.55 0 0 -227.5zm422.72 -860.4l234.22 0 0 1087.9 -234.22 0 0 -1087.9zm334.99 860.4l315.67 0 0 227.5 -315.67 0 0 -227.5zm422.72 -860.4l234.32 0 0 1087.9 -234.32 0 0 -1087.9zm725.42 0l234.22 0 0 1087.9 -234.22 0 0 -1087.9zm-396.68 429.19l302.6 0 0 227.96 -302.6 0 0 -227.96zm1034.05 182.26c8.71,41.35 23.35,78.44 44.02,111.63 20.67,32.75 45.48,61.24 74.64,85.26 29.38,23.91 61.91,42.24 97.66,55.2 35.76,12.96 74.2,19.44 115.54,19.44 81.24,0 151.63,-24.02 211.19,-72.18 59.89,-48.5 100.56,-114.87 122.36,-199.34l235.78 0c-9.84,73.64 -31.18,141.35 -64.26,203.25 -33.19,61.69 -74.98,115.1 -125.48,160.02 -50.28,45.02 -107.72,80.11 -172.31,105.26 -64.36,24.81 -132.85,37.33 -205.71,37.33 -72.52,0 -141.35,-12.74 -206.39,-38.11 -65.15,-25.7 -123.24,-61.35 -174.32,-106.83 -50.83,-45.59 -92.85,-99.12 -125.93,-160.79 -33.08,-61.91 -53.86,-128.61 -62.24,-200.13l235.44 0 0.01 -0.01zm-235.44 -131.86c8.37,-71.41 29.17,-138.01 62.24,-199.68 33.08,-61.91 75.08,-115.65 125.93,-161.13 51.07,-45.59 109.17,-81.01 174.32,-106.49 65.04,-25.59 133.87,-38.43 206.39,-38.43 72.86,0 141.35,12.51 205.71,37.66 64.59,24.92 122.03,59.9 172.31,104.81 50.5,45.02 92.29,98.56 125.48,160.46 33.08,61.67 54.43,129.28 64.26,202.81l-235.78 0c-21.8,-84.37 -62.47,-150.75 -122.36,-198.91 -59.56,-48.38 -129.96,-72.63 -211.19,-72.63 -41.35,0 -79.78,6.48 -115.54,19.44 -35.76,12.97 -68.27,31.52 -97.66,55.65 -29.17,23.8 -53.97,52.52 -74.64,86.15 -20.68,33.63 -35.31,70.39 -44.02,110.29l-235.44 0 -0.01 0zm1676.22 629.32c-52.96,-8.71 -102.13,-25.81 -147.72,-51.17 -45.49,-25.48 -86.27,-57.1 -122.25,-94.88 -40,-44.47 -68.72,-93.08 -86.15,-145.7 -17.21,-52.75 -25.81,-118.67 -25.81,-197.79l0 -619.37 234.22 0 0 598.38c0,42.35 2.13,78.22 6.37,107.6 4.25,29.05 12.07,53.97 23.47,74.64 11.4,20.56 26.59,38 45.59,51.96 19.11,14.09 43.26,26.48 72.3,37.33l0 239.01 -0 0.01zm128.62 -239.01c29.16,-9.72 53.19,-21.69 72.3,-35.76 19.11,-13.96 34.52,-31.85 46.48,-53.52 11.85,-19.67 20.01,-42.69 24.14,-69.17 4.58,-26.7 6.81,-64.36 6.81,-113.07l0 -598.38 234.22 0 0 619.37c0,79.12 -8.71,145.04 -26.15,197.79 -17.54,52.63 -46.26,101.23 -86.15,145.7 -35.76,38.89 -76.88,70.74 -123.48,95.65 -46.59,24.92 -95.98,41.69 -148.16,50.4l0 -239.01 -0.01 -0.01zm590.1 -422.83l234.22 204.93 0 435.91 -234.22 0 0 -640.84zm0 -172.3l0 -310.53 725.42 642.39 0 -606.63 234.22 0 0 1121.98 -959.63 -847.21 -0 0.01zm1177.31 -274.78l234.32 0 0 1087.9 -234.32 0 0 -1087.9zm364.5 858.39l84.58 0c60.57,0 110.06,-6.7 148.5,-20.22 38.67,-13.52 74.2,-36.54 106.82,-69.06 61.69,-63.81 92.41,-138.11 92.41,-222.81 0,-52.08 -11.61,-101.23 -34.86,-147.28 -23.35,-46.03 -55.43,-83.57 -96.55,-112.74 -15.31,-10.84 -30.84,-20.11 -46.37,-27.82 -15.64,-7.6 -32.74,-13.85 -51.29,-18.67 -18.54,-4.69 -39.44,-7.94 -62.69,-9.5 -23.35,-1.8 -50.17,-2.8 -80.56,-2.8l-60 0 0 -227.49 83.02 0c86.82,0 160.79,10.38 221.92,30.95 61.13,20.45 117.78,53.42 169.96,98.89 61.69,55.32 108.72,118.12 141.35,188.18 32.52,69.94 48.83,144.93 48.83,225.15 0,91.06 -21,176.67 -62.8,256.89 -41.56,80.22 -99.79,146.38 -174.66,198.45 -45.59,31.52 -94.65,54.31 -147.26,68.39 -52.41,13.96 -115.1,21.01 -187.83,21.01l-92.52 0 0 -229.52 0.01 -0.01zm0 0"/>
   <path class="fil3" d="M86.2 8506.84l234.2 0 0 1087.91 -234.2 0 0 -1087.91zm724.98 0l234.2 0 0 1087.91 -234.2 0 0 -1087.91zm-396.46 429.53l302.15 0 0 227.51 -302.15 0 0 -227.51zm0 0z"/>
   <path class="fil3" d="M1261.91 8506.84l234.22 0 0 1087.91 -234.22 0 0 -1087.91zm367.4 860.4l427.74 0 0 227.5 -427.74 0 0 -227.5zm0 -429.53l427.74 0 0 227.96 -427.74 0 0 -227.96zm0 -430.87l427.74 0 0 227.5 -427.74 0 0 -227.5zm0 0z"/>
   <path class="fil3" d="M2260.38 8506.84l234.2 0 0 1087.91 -234.2 0 0 -1087.91zm334.78 860.4l315.56 0 0 227.5 -315.56 0 0 -227.5zm0 0z"/>
   <path class="fil3" d="M3018.18 8506.84l234.2 0 0 1087.91 -234.2 0 0 -1087.91zm334.78 860.4l315.55 0 0 227.5 -315.55 0 0 -227.5zm0 0z"/>
   <path class="fil3" d="M3775.97 8506.84l234.22 0 0 1087.91 -234.22 0 0 -1087.91zm724.97 0l234.22 0 0 1087.91 -234.22 0 0 -1087.91zm-396.46 429.53l302.15 0 0 227.51 -302.15 0 0 -227.51zm0 0z"/>
   <path class="fil3" d="M5138.52 9118.29c8.61,41.12 23.25,78.22 43.8,111.3 20.56,33.08 45.37,61.57 74.65,85.37 29.5,23.91 62.13,42.35 97.88,55.43 35.76,13.19 74.2,19.66 115.32,19.66 81.34,0 151.74,-24.13 211.41,-72.41 59.56,-48.27 100.23,-114.65 122.02,-199.34l235.99 0c-9.83,73.64 -31.28,141.46 -64.36,203.37 -33.08,61.69 -74.87,115.1 -125.15,160 -50.4,45.03 -107.94,80.01 -172.53,105.04 -64.37,24.69 -132.97,37.09 -205.61,37.09 -72.74,0 -141.58,-12.74 -206.49,-37.99 -65.03,-25.59 -122.92,-61.01 -173.86,-106.38 -50.95,-45.59 -92.98,-99.22 -126.06,-160.91 -33.08,-61.91 -53.97,-128.73 -62.57,-200.24l235.56 0 0.02 0.01zm-235.56 -131.85c8.61,-71.51 29.5,-138.11 62.57,-199.8 33.08,-61.67 75.1,-115.31 126.06,-160.9 50.95,-45.59 108.83,-81.01 173.86,-106.38 64.93,-25.59 133.76,-38.44 206.49,-38.44 72.63,0 141.24,12.52 205.61,37.54 64.58,24.81 122.13,59.67 172.53,104.59 50.28,45.02 92.07,98.56 125.15,160.46 33.08,61.67 54.53,129.39 64.36,202.91l-235.99 0c-21.78,-84.25 -62.46,-150.62 -122.02,-198.9 -59.67,-48.28 -130.06,-72.41 -211.41,-72.41 -41.12,0 -79.57,6.59 -115.32,19.66 -35.75,12.86 -68.38,31.18 -97.88,54.98 -29.28,23.91 -54.09,52.63 -74.65,86.27 -20.55,33.74 -35.2,70.5 -43.8,110.39l-235.56 0 -0.02 0.02zm0 0z"/>
   <path class="fil3" d="M6579.25 9615.76c-53.07,-8.71 -102.36,-25.59 -147.94,-50.96 -45.59,-25.59 -86.26,-57.31 -122.02,-95.21 -40.01,-44.36 -68.72,-92.74 -86.27,-145.26 -17.32,-52.75 -25.93,-118.67 -25.93,-198l0 -619.5 234.22 0 0 598.48c0,42.35 2.01,78.11 6.26,107.27 4.47,29.28 12.3,54.3 23.69,75.09 11.63,20.55 26.82,37.87 45.59,51.84 18.99,14.08 43.13,26.59 72.41,37.54l0 238.68 -0 0.02zm128.72 -238.68c29.17,-9.84 53.19,-21.68 71.97,-35.76 18.99,-14.3 34.52,-32.29 46.48,-54.09 11.85,-19.33 19.89,-42.23 24.14,-68.82 4.47,-26.48 6.7,-64.14 6.7,-113.09l0 -598.48 234.22 0 0 619.5c0,79.33 -8.71,145.26 -25.93,198 -17.31,52.51 -46.03,100.89 -86.26,145.26 -35.76,39.11 -77.09,71.07 -123.81,96.1 -46.48,24.8 -95.65,41.35 -147.5,50.06l0 -238.68 -0.01 0zm0 0z"/>
   <path class="fil3" d="M7298.24 8954.25l234.22 204.71 0 435.78 -234.22 0 0 -640.5 0 0.01zm0 -172.54l0 -310.64 724.97 642.28 0 -606.53 234.22 0 0 1121.88 -959.19 -846.99 0 -0.01zm0 0z"/>
   <path class="fil3" d="M8475.58 8506.84l234.22 0 0 1087.91 -234.22 0 0 -1087.91zm364.28 858.63l84.48 0c60.79,0 110.4,-6.7 148.85,-20.11 38.43,-13.63 73.86,-36.76 106.38,-69.28 61.67,-64.03 92.52,-138.22 92.52,-222.59 0,-52.08 -11.63,-101.13 -34.87,-147.05 -23.24,-46.15 -55.43,-84.03 -96.54,-113.53 -15.2,-10.73 -30.73,-19.78 -46.49,-27.27 -15.87,-7.7 -32.96,-13.97 -51.4,-18.78 -18.21,-5.04 -39.1,-8.27 -62.57,-9.84 -23.24,-1.8 -50.06,-2.69 -80.45,-2.69l-59.9 0 0 -227.5 82.69 0c86.71,0 160.57,10.28 221.69,30.85 61.35,20.56 118.11,53.63 170.29,99.22 61.69,55.43 108.72,118.21 141.24,188.17 32.74,69.73 49.17,144.7 49.17,224.82 0,91.18 -21.01,176.88 -63.02,257.01 -41.79,80.22 -100,146.38 -174.76,198.45 -45.36,31.28 -94.31,54.09 -147.04,68.38 -52.52,14.08 -115.1,21.01 -187.73,21.01l-92.52 0 0 -229.29 0 0.01zm0 0z"/>
  </g>
 </g>
</svg>
