<?xml version="1.0" encoding="UTF-8"?>
<!DOCTYPE svg PUBLIC "-//W3C//DTD SVG 1.1//EN" "http://www.w3.org/Graphics/SVG/1.1/DTD/svg11.dtd">
<!-- Creator: CorelDRAW Standard 2024 -->
<svg xmlns="http://www.w3.org/2000/svg" xml:space="preserve" width="20.0235in" height="18.872in" version="1.1" style="shape-rendering:geometricPrecision; text-rendering:geometricPrecision; image-rendering:optimizeQuality; fill-rule:evenodd; clip-rule:evenodd"
viewBox="0 0 20023.46 18871.93"
 xmlns:xlink="http://www.w3.org/1999/xlink"
 xmlns:xodm="http://www.corel.com/coreldraw/odm/2003">
 <defs>
  <style type="text/css">
   <![CDATA[
    .fil0 {fill:black}
    .fil1 {fill:#EB1E35}
   ]]>
  </style>
 </defs>
 <g id="Layer_x0020_1">
  <metadata id="CorelCorpID_0Corel-Layer"/>
  <path class="fil0" d="M16275.14 12314.66c138.75,-73.86 232.49,-157.46 334.19,-235.83 102.75,-79.17 119.13,-126.91 164.17,-156.1 24.3,-15.74 3.43,107.65 -39.2,221.04 205,-58.96 224.32,-131.13 261,-133.06 -5.36,55.87 5.91,-17.14 -2.7,32.6 -5.24,30.22 -19.82,74.02 -97.28,161.07 41.64,11.83 96.1,-17.52 88.62,9.55 -111.97,405.12 -371.31,704.47 -426.19,860.21 214.2,-20.78 418.41,-100.38 582.24,-186.13 332.24,-173.91 578.67,-463.02 815.6,-741.11 89.16,-104.65 243.87,-316.96 308.17,-469.79 55.4,-131.68 72.74,-123.41 181.99,-205.96l213.14 -176.26c41.82,-33.5 57.1,-62.28 96.59,-97.46 99.63,-88.77 209.19,-185.96 288.33,-295.54 26.87,-37.21 61.79,-71.99 88.81,-105.77 210.78,-263.5 372.52,-521.71 525.68,-835.5 68.66,-140.66 195.34,-254.74 296.79,-481.19 69.8,-155.79 115.23,-327.94 -12.11,-456.12 -161.68,-162.75 -350.68,-300.2 -534.36,-438 -139.32,-104.52 -299.61,-219.64 -457.67,-320.3 -281.74,-179.43 -196.84,-102.89 -433.6,-343.63 -395.8,-402.45 -832.08,-713.67 -1321.5,-992.17 4.91,-119.63 -30.97,-342.41 26.32,-418.54l98.36 -123.79c31.09,-45.85 56.39,-82.11 81.87,-126.66 56.07,-98.05 250.87,-503.06 228.75,-632.41 -116.18,-8.84 -377.95,-17.98 -477.8,-51.44 -58.24,-19.51 -264.97,-273.44 -325.52,-340.67 -26.26,-29.15 -37.48,-31.36 -65.82,-58.73l-450.44 -480.2c-61.25,-66.69 -120.42,-140.45 -183.81,-205.4 -61.68,-63.19 -85.04,-44.94 -98.72,-162.01 -32.71,-279.66 -59.88,-1012.65 -129.63,-1191.87 -194.12,-498.8 -421.14,-993.08 -612.48,-1498.84 -182.9,-483.46 -369.45,-963.15 -511.5,-1459.84l-47.58 -91.85c-100.89,655.1 -516.19,1478.89 -919.45,1968.97 -156.4,190.06 -277.9,327.07 -480.9,476.82 -148.63,109.64 -136.84,55.99 -318.79,-20.15 -331.15,-138.59 -727.99,-265.47 -1073.19,-371.45 -1473.17,-452.25 -2788.64,-492.48 -4311.98,-492.46 -787.74,0.01 -915.04,113.83 -1574.38,-328.98 -464.73,-312.11 -687.34,-501.61 -1065.98,-850.24 -68.58,-63.14 -415.11,-438.8 -476.97,-469.49 -6.73,462.94 -44.46,916.68 -44.39,1384.67 0.09,568.35 54.3,782.1 112.46,1306.8 -251.19,45.57 -698.8,288.07 -944.45,421.08 -76.56,41.46 -175.21,86.65 -245.04,145.16 -32.55,27.26 -11.64,6.32 -32.42,35.69 222.15,-9.79 444.26,-49.9 675.4,-55.88 203.35,-5.26 499.94,-12.35 689.48,22.52l15.82 55.19c-53.94,35.59 -227.34,90 -297.3,117.19 -847.46,329.36 -1622.34,775.17 -2342.06,1324.88 -165.72,126.58 -411.32,328.89 -556.29,471.91 -40.66,40.11 -60.86,68.98 -101.24,106.89 -72.74,68.28 -124.65,135.9 -203.12,200.03 -57.28,46.81 -342.72,372.75 -370.02,432.4 96.41,-35.12 235.68,-128 332.22,-178.15 113.43,-58.93 227.46,-112.94 347.22,-166.56 155.46,-69.61 594,-224.2 770.22,-238.04l-204.33 205.93c-105.75,107.19 -213.26,203.41 -303.33,321.64 -34.05,44.69 -61.46,68.35 -94.79,113.81 -57.81,78.88 -124.71,151.77 -185.87,230.71 -238.04,307.24 -442.41,629.55 -655.17,1011.88 -293.49,527.4 -843.28,1853.27 -869.21,2459.53 62.5,-64.09 110.44,-140.74 166.2,-205.03l279.37 -275.88c265.54,-288.27 919.3,-615.42 1293.77,-716.19 -39.69,144.86 -124.25,334.09 -178.35,485.3 -57.47,160.63 -104.21,319.7 -152.07,486.97 -209.26,731.35 -301.46,1551.06 -186.98,2309.21 36.53,241.92 150.29,872.04 260.59,1031.97 16.83,-506.23 21.5,-850.55 213.83,-1291.64 148.7,-341.02 356.45,-602.46 625.37,-834.45 22.97,-19.81 -3.56,-2.11 28.97,-22.27 16.28,898.48 316.43,1833.17 655.79,2553.83 307.65,653.31 643.83,1108.39 1072.04,1636.49 16.87,20.8 23.82,36.05 41.9,56 21.21,23.41 28.78,24.19 50.61,45.93 54.59,54.37 71.26,105.92 147.7,152.25 -52.3,-219.08 -161.67,-460.5 -219.88,-716.8 -46.95,-206.7 -119.93,-584.72 -109.62,-798.27l438.74 675.55c164.63,241.74 344.93,456.99 529.59,678.89l481.55 532.48c58.27,61.07 114.14,105.76 186.89,188.05 53.09,60.06 131,127.39 193.39,181.56l288.83 266.62c41.12,35.46 48.58,38.38 96.17,84.61l196.46 164.74c638.11,551.53 1490.43,1076.21 2200.57,1494.25 267.47,157.45 1652.12,891.08 1977.34,978.5l-349.35 -384.72c-77.26,-69.66 -158.17,-177.09 -229.17,-257.23 -185.19,-209 -377.97,-424.77 -527.49,-666.27 -58.58,-94.61 -120.92,-191.87 -175.49,-296.77 -292.72,-562.62 -360.56,-1360.71 -15.74,-1919.39 179.24,-290.41 417.18,-517 716.65,-712.81 212.13,-138.71 406.9,-216.17 637.84,-319.32l-4.51 -132.08c48.52,122.42 126.2,265.23 181.64,399.9 58.2,141.39 115.91,277.04 175.44,421.59 256.77,623.41 85.85,588.93 441.99,754.12 615.11,285.32 1299.67,522.56 1991.45,688.82 125.3,30.11 118,24.52 231.09,-18.86 413.05,-158.44 845.79,-354.37 1210.3,-581.63 81.06,-50.54 487.31,-303.62 510.62,-395.04 41.4,-162.44 10.89,-902.72 -77.06,-1073.56 -40.78,-79.2 -96.7,-108.7 -118.7,-174.63 0.04,-1.21 219.75,-454.46 234.76,-929.62 -77.91,19.09 -406.66,282.38 -511.38,340.61 -42.39,-125.91 1.99,-213.5 22.47,-347.72 18.14,-118.87 30.95,-276.11 16.62,-395.29 -67.68,22.48 -152.55,86.96 -228.11,128.77 -71.59,39.61 -163.69,80.56 -237.06,114.28 82.83,-164.61 189.22,-359.13 150.99,-604.7 -210.11,55.87 -304.58,85.39 -536.02,94.78 22.37,-58.43 72.26,-129.43 105,-190.89 103.53,-194.34 180.46,-459.3 167.5,-688.41l-349.11 119.88c24.2,-69.48 62.82,-142.78 79.52,-227.81 19.91,-101.39 12.3,-187.44 16.81,-288.4 324.31,-56.97 644.41,-165.07 909.5,-339.75l228.78 -171.28c129.15,229.98 -2.65,662.81 -49.97,901.06 444.64,-109.09 647.77,-393.2 735.81,-440.81 26.63,491.39 -149.21,909.56 -448.14,1273.76l-47.65 74.43c297.93,-58.99 595.19,-183.84 836.56,-312.33l-0.01 0.04z"/>
  <path class="fil1" d="M4813.27 5556.94c4.21,-4.63 64.69,-122.64 80.84,-151.91 147.63,-267.44 311.06,-517.47 487.73,-762.02 140.56,-194.56 78.53,-95.11 -5.62,-302.67 -164.43,21.3 -1158.84,587.03 -1355.39,705.57 -346.94,209.24 -596.31,411.24 -898.89,642.66 -247.53,189.31 -436.66,417.3 -665.45,626.14 -153.22,139.86 -441,523.04 -580.42,697.41 -139.43,174.39 -290.57,410.62 -413.04,614.78 -74.31,123.89 -331.16,536.83 -362.46,638.98 53.99,-53.89 302.43,-190.63 400.85,-240.32 407.38,-205.67 1010.82,-409.16 1472.6,-448.04 -18.69,56.64 -87.56,152.29 -123.22,215 -315.99,555.62 -460.54,1145.08 -461.78,1800.47 -0.49,257.54 116.63,1177.92 222.16,1349.01 -2.84,-557.52 11.65,-924.36 164.16,-1446.47 68.43,-234.26 335.89,-951.15 486.82,-1109.32 0.28,166.29 -50.52,423.74 -62.25,610.89 -45.06,718.74 -31.57,1484.52 135.8,2176.54 43.39,179.41 280.42,1057.43 394.75,1246.02 18.34,30.26 2.5,8.75 22.18,28.01 -7.39,-290.24 -7.59,-551.41 22.53,-840.93 14.33,-137.74 83.81,-630.67 138.81,-718.94 53.46,182.41 84.24,389.07 141.23,578.42 153.75,510.8 364.96,1052.18 624.54,1501.49 587.66,1017.21 958.81,1466.5 1673.25,2243.24 165.94,180.41 357.43,361.98 534.52,521.03 33.17,29.79 57.57,61.1 89.97,90.32l278.16 249.63c260.18,246.32 698.65,581.1 987.25,790.61 65.09,47.25 133.84,100.77 199.54,147.65 92.23,65.81 315.74,246.15 409.12,286.34 -109.92,-110.87 -218.59,-308.19 -302.89,-448.38 -537.78,-894.3 -684.94,-2058.01 -155.01,-2999.15 167.43,-297.35 221.62,-312.86 423.85,-534.33 36.24,-39.68 56.58,-48.42 99.11,-81.44 74.46,-57.8 135.84,-93.96 219.93,-154.12 -80.01,-135.3 -427.85,-242.46 -562.84,-254.94 -692.66,-64.02 -1037.93,560.15 -1197.64,1202.27 -82.14,-124.76 -25.43,-727.69 -10.14,-845.74 60.83,-469.53 232.82,-951.38 503.91,-1313.58l212.07 -246.33c66.54,-81.37 154.91,-135.04 231.7,-208.4 -160.25,-191.85 -954.24,-382.7 -1182.71,-297.22 -49.85,18.65 -230.31,194.48 -265.22,233.88 -366.33,413.31 -497.11,797.59 -629.95,1356.47 -97.41,-119.41 -157.84,-836.47 -158.6,-1043.06 -1.89,-501.79 119.78,-1077.95 275.43,-1505.3 211.65,-581.12 592.66,-1039.92 625.17,-1124.82 -590.07,38.75 -904.65,98.95 -1385.04,322.17 -298.43,138.66 -524.32,308.48 -757.04,506.12 -56.59,48.06 -160.82,173.87 -216.59,207 26,-190.46 187.88,-570.05 265.63,-740.8 308.46,-677.37 676.05,-1085.3 1092.32,-1630.34 33.43,-43.78 76.84,-86.12 98.66,-130.68 -143.74,30.03 -480.17,214.89 -611.13,284.99 -293.76,157.22 -551.07,337.41 -801.82,531.44l-240.98 203.33c-77.59,78.9 -149.03,131.2 -226.35,218.16 -49.32,55.46 -154.17,190.68 -206.13,231.2 95.16,-495.46 480.67,-1239.15 734.99,-1688.21 61.69,-108.94 272.13,-417.55 301.69,-499.58 -442.94,144.72 -892.01,453.8 -1230.38,737.25l-339.37 317.21c33.93,-117.82 150.59,-330.89 203.51,-440.1 197.69,-407.95 485.74,-782.62 760.63,-1113.43 53.3,-64.14 90.97,-106.37 150.91,-168.65 52.89,-54.96 84.69,-98.14 145.92,-159.45 255.16,-255.46 522.63,-527.57 814.68,-754.78 46.5,-36.18 120.62,-96.09 160.13,-135.29 -161.81,-0.14 -804.91,350.08 -878.69,427.1l-0 -0.01z"/>
  <path class="fil1" d="M14203.53 8366.93c1.74,-2.95 6.59,4.41 9.62,6.96 -140.2,-4.69 -374.87,-53.35 -490.45,10.77 100.85,76.52 483.93,207.41 801.32,511.47 -201.56,-49.06 -454.91,-241.55 -1039.82,-304.07 -221.44,-23.67 -419.65,-17.96 -638.65,14.32 -90.29,13.31 -516.24,86.57 -554.65,110.24 697.43,227.43 1680.21,643.56 2318.13,1001.36 243.26,136.44 458.1,282.44 668.42,429.02 113.89,79.38 215.13,162.81 324.41,231 524.27,327.12 1543.91,568.39 2163.51,599.33 208.58,10.41 276.09,-28.15 437.13,-111.94 115.59,-60.14 240.75,-133.94 329.76,-211.09 -349.84,-33.08 -1101.87,-339.83 -1460.17,-459.1 105.12,2.88 803.94,134.1 1131.38,157.79 -36.26,-64.22 -160.68,-193.15 -216.54,-262.37 -72.94,-90.37 -152.13,-170.77 -227.83,-258.35l-473.25 -493.11c76.21,26.63 738.91,476.93 761.31,508.47 -5.52,-75.48 -152.29,-488.8 -188.51,-573.3 -49.34,-115.11 -317.3,-243.13 -446.08,-316.9 -684.49,-392.12 -1399.93,-721.3 -2204.98,-878.9 -476.14,-93.2 -769.7,-72.55 -1162.17,186.46l-47.33 36.33 52.83 16.86c16.94,4.22 38.13,8.36 57.24,12.91 11.27,2.69 46.47,11.26 54.98,14.44l40.38 21.39 0.01 0.01z"/>
  <path class="fil1" d="M10914.86 12232.37c-9.74,-12.92 -12.26,-18.89 -21.56,-35.48l-112.9 -206.69c-48.16,-90.75 -93.44,-181.46 -146.05,-283.16 -506.33,-978.79 -866.89,-1958.19 -1294.89,-2969.17 -85.97,-203.07 -172.84,-398.3 -265.07,-595.72 -71.09,-152.17 -304.3,-283.5 -459.66,-376.85 242.35,-32.37 645.17,43.25 868.96,104.11 220.38,59.93 670.15,234.24 718.13,245.78 -30.08,-49.56 -1009.22,-1116.21 -1064.38,-1148.27 -176.92,99.1 -340.67,226.93 -491.59,343.2 -144.74,111.52 -327.76,246.97 -451.49,368.26 -115.87,113.57 -325.39,258.56 -475.89,343.4l-503.83 275.13c-18.3,10.87 -18.3,11.59 -26.17,18.31l953.15 202.62c54.06,12.84 103.98,24.53 158,36.81 155.82,35.45 113.99,17.93 140.5,52.17 -81.28,16.86 -674.4,712.76 -759.29,898.29 697.52,-26.06 1090.91,156.13 1526.1,601.66 326.47,334.22 647.62,758.83 947.52,1163.95 231.45,312.64 979.28,1422.54 1202.15,1853.91l429.39 742.67c-16.01,-252.8 -375.39,-1122.43 -487.81,-1392.93 -180.95,-435.38 -406.37,-850.33 -597.61,-1277.54 -192.02,-428.94 -413.27,-848.82 -602.32,-1286.71 -92.95,-215.29 -198.03,-431.32 -295.85,-648.41 -97.07,-215.43 -194.5,-443.57 -286.81,-637.89 24.22,110.16 286.78,769.49 347.37,924.67 211.35,541.27 482.99,1333.1 697.63,1829.83l384.94 887.1 -30.67 -33.04 -0 -0.01z"/>
  <path class="fil1" d="M11484.66 10199.55c-27.8,-24.51 -422.84,-747.15 -542.26,-844.57 17.3,166.99 89.58,342.09 85.29,518.94 52.47,-17.04 27.37,-23.31 81.97,-32.44 69.02,81.3 126.6,293.6 137.64,419.21 18.14,206.38 -21.61,314.08 -50.36,496.04 128.03,-100.21 193.35,-379.65 259.95,-414.24 95.78,208.54 140.34,985.27 104.09,1240.28 205.57,-34.72 521.55,-160.57 710.14,-169.22 -8.13,73.98 -50.47,200.23 -78.81,261.32 -66.76,143.94 -48.89,104.85 -17.94,271.85 50.53,272.69 1.26,398.8 6.55,645.53 44.47,-72.43 78.08,-252.28 93.01,-346.73 74.13,27.08 189.48,144.95 233.85,199.46 288.06,353.85 280.44,540.55 251.91,979.26 84.26,-36.2 392.14,-304.52 467.22,-394.47 34.48,-41.3 90.83,-127.96 132.75,-143.09 70.7,128.51 103.71,379 103.36,539.65 -0.5,234.14 -57.12,346.15 -95.11,548.56 164.2,2.43 261.15,-35.14 422.3,-54.08 79.07,87.64 -36.07,76.35 318.91,101.12 147.87,10.31 256.24,15.94 400.05,-16.73 -19.63,-44.32 -76.06,-87.06 -107.78,-120.71 -139.31,-147.79 -453.32,-824.03 -553.18,-1016.21 -207.13,-398.61 -399.92,-793.7 -603.98,-1201.58 -102.2,-204.29 -202.41,-398.64 -303.7,-599.29 -125.08,-247.78 -167.31,-367.22 -372.12,-530.44 -273.24,-217.75 -1041.39,-670.28 -1075.45,-698.76 -9.04,103.21 25.55,265.83 -8.31,361.35l0.01 -0.02z"/>
  <path class="fil1" d="M5931.99 2367.99l-446.57 -470.06c-53.14,-64.51 -380.49,-459.47 -436.47,-489.66 21.05,252.44 480.69,1907.36 573,2033.77 9.46,-162.43 19.9,-583.01 110.91,-680.43 50.04,146.98 76.1,320.61 126.71,470.32 48.76,144.22 112.93,279.79 172.09,411.38 210.41,468.04 527.52,1141.47 889.14,1458.04 160.86,140.82 75.76,102 439.03,60.88 179.34,-20.3 358.77,-33.34 538.91,-47.09 -37.22,-39.34 -96.12,-81.13 -138.78,-116.43 -182.65,-151.17 -195.27,-175.42 -336.59,-330.13 -237.48,-259.96 -306.63,-354.38 -511.78,-655.72l1081.39 342.71c-124.54,-119.96 -248.35,-239.37 -378.89,-350.25 -134.44,-114.18 -248.68,-236.99 -380.5,-355.69 -260.91,-234.93 -499.31,-475.31 -746.94,-725.25 -37.1,-37.45 -60.46,-58.57 -99.8,-94.74l-270.43 -271.17c-64.94,-66.76 -120.66,-122.15 -184.44,-190.49l0.01 0z"/>
  <path class="fil1" d="M11947.31 13463.4l-251.99 -354.72c18.81,93.76 331.39,940.1 389.72,1092.21 70.07,182.77 133.09,358.22 204.01,533.35 36.43,89.97 130.24,119.92 209.85,163.67 82.48,45.34 156.73,82.55 238.13,122.98 502.02,249.37 1034.34,556.68 1568.6,393.15 26.37,-8.07 49.75,-14.79 75.46,-22.83 1.99,-0.62 26.41,-8.14 31.38,-10.66 61.8,-31.34 282.48,-450.92 293.05,-487.44 -74.76,8.36 -179.95,44.64 -261.93,62.29 -417.94,89.99 -949.63,-17.46 -1340.17,-161.46 -223.41,-82.37 -232.06,-93.33 -359.9,-251.48 -229.17,-283.52 -581.24,-758.78 -796.2,-1079.08l-0.02 0.02z"/>
  <path class="fil1" d="M12139.61 5593.6c-30.27,479.09 137.56,829.86 422.09,1029.29 390.55,273.72 740.67,204.37 1229.73,192.44 -58.01,-81.13 -116.06,-127.03 -177.92,-179l-589.26 -496.33c-104.62,-82.11 -701.17,-538.81 -884.68,-546.38l0.03 -0.01z"/>
 </g>
</svg>
