
<svg width="800" height="800" xmlns="http://www.w3.org/2000/svg">
  <!-- Main grid lines -->
  <g stroke="#14786c" stroke-width="0.5" opacity="0.3">
    <!-- Horizontal lines -->
    <line x1="0" y1="0" x2="800" y2="0" />
    <line x1="0" y1="50" x2="800" y2="50" />
    <line x1="0" y1="100" x2="800" y2="100" />
    <line x1="0" y1="150" x2="800" y2="150" />
    <line x1="0" y1="200" x2="800" y2="200" />
    <line x1="0" y1="250" x2="800" y2="250" />
    <line x1="0" y1="300" x2="800" y2="300" />
    <line x1="0" y1="350" x2="800" y2="350" />
    <line x1="0" y1="400" x2="800" y2="400" />
    <line x1="0" y1="450" x2="800" y2="450" />
    <line x1="0" y1="500" x2="800" y2="500" />
    <line x1="0" y1="550" x2="800" y2="550" />
    <line x1="0" y1="600" x2="800" y2="600" />
    <line x1="0" y1="650" x2="800" y2="650" />
    <line x1="0" y1="700" x2="800" y2="700" />
    <line x1="0" y1="750" x2="800" y2="750" />
    <line x1="0" y1="800" x2="800" y2="800" />
    
    <!-- Vertical lines -->
    <line x1="0" y1="0" x2="0" y2="800" />
    <line x1="50" y1="0" x2="50" y2="800" />
    <line x1="100" y1="0" x2="100" y2="800" />
    <line x1="150" y1="0" x2="150" y2="800" />
    <line x1="200" y1="0" x2="200" y2="800" />
    <line x1="250" y1="0" x2="250" y2="800" />
    <line x1="300" y1="0" x2="300" y2="800" />
    <line x1="350" y1="0" x2="350" y2="800" />
    <line x1="400" y1="0" x2="400" y2="800" />
    <line x1="450" y1="0" x2="450" y2="800" />
    <line x1="500" y1="0" x2="500" y2="800" />
    <line x1="550" y1="0" x2="550" y2="800" />
    <line x1="600" y1="0" x2="600" y2="800" />
    <line x1="650" y1="0" x2="650" y2="800" />
    <line x1="700" y1="0" x2="700" y2="800" />
    <line x1="750" y1="0" x2="750" y2="800" />
    <line x1="800" y1="0" x2="800" y2="800" />
  </g>
  
  <!-- Subtle fine grid lines -->
  <g stroke="#14786c" stroke-width="0.1" opacity="0.2">
    <!-- Horizontal fine lines -->
    <line x1="0" y1="25" x2="800" y2="25" />
    <line x1="0" y1="75" x2="800" y2="75" />
    <line x1="0" y1="125" x2="800" y2="125" />
    <line x1="0" y1="175" x2="800" y2="175" />
    <line x1="0" y1="225" x2="800" y2="225" />
    <line x1="0" y1="275" x2="800" y2="275" />
    <line x1="0" y1="325" x2="800" y2="325" />
    <line x1="0" y1="375" x2="800" y2="375" />
    <line x1="0" y1="425" x2="800" y2="425" />
    <line x1="0" y1="475" x2="800" y2="475" />
    <line x1="0" y1="525" x2="800" y2="525" />
    <line x1="0" y1="575" x2="800" y2="575" />
    <line x1="0" y1="625" x2="800" y2="625" />
    <line x1="0" y1="675" x2="800" y2="675" />
    <line x1="0" y1="725" x2="800" y2="725" />
    <line x1="0" y1="775" x2="800" y2="775" />
    
    <!-- Vertical fine lines -->
    <line x1="25" y1="0" x2="25" y2="800" />
    <line x1="75" y1="0" x2="75" y2="800" />
    <line x1="125" y1="0" x2="125" y2="800" />
    <line x1="175" y1="0" x2="175" y2="800" />
    <line x1="225" y1="0" x2="225" y2="800" />
    <line x1="275" y1="0" x2="275" y2="800" />
    <line x1="325" y1="0" x2="325" y2="800" />
    <line x1="375" y1="0" x2="375" y2="800" />
    <line x1="425" y1="0" x2="425" y2="800" />
    <line x1="475" y1="0" x2="475" y2="800" />
    <line x1="525" y1="0" x2="525" y2="800" />
    <line x1="575" y1="0" x2="575" y2="800" />
    <line x1="625" y1="0" x2="625" y2="800" />
    <line x1="675" y1="0" x2="675" y2="800" />
    <line x1="725" y1="0" x2="725" y2="800" />
    <line x1="775" y1="0" x2="775" y2="800" />
  </g>
  
  <!-- Coordinate markers at main intersections -->
  <g fill="#14786c" opacity="0.5">
    <circle cx="100" cy="100" r="1" />
    <circle cx="100" cy="200" r="1" />
    <circle cx="100" cy="300" r="1" />
    <circle cx="100" cy="400" r="1" />
    <circle cx="100" cy="500" r="1" />
    <circle cx="100" cy="600" r="1" />
    <circle cx="100" cy="700" r="1" />
    
    <circle cx="200" cy="100" r="1" />
    <circle cx="200" cy="200" r="1" />
    <circle cx="200" cy="300" r="1" />
    <circle cx="200" cy="400" r="1" />
    <circle cx="200" cy="500" r="1" />
    <circle cx="200" cy="600" r="1" />
    <circle cx="200" cy="700" r="1" />
    
    <circle cx="300" cy="100" r="1" />
    <circle cx="300" cy="200" r="1" />
    <circle cx="300" cy="300" r="1" />
    <circle cx="300" cy="400" r="1" />
    <circle cx="300" cy="500" r="1" />
    <circle cx="300" cy="600" r="1" />
    <circle cx="300" cy="700" r="1" />
    
    <circle cx="400" cy="100" r="1" />
    <circle cx="400" cy="200" r="1" />
    <circle cx="400" cy="300" r="1" />
    <circle cx="400" cy="400" r="1" />
    <circle cx="400" cy="500" r="1" />
    <circle cx="400" cy="600" r="1" />
    <circle cx="400" cy="700" r="1" />
    
    <circle cx="500" cy="100" r="1" />
    <circle cx="500" cy="200" r="1" />
    <circle cx="500" cy="300" r="1" />
    <circle cx="500" cy="400" r="1" />
    <circle cx="500" cy="500" r="1" />
    <circle cx="500" cy="600" r="1" />
    <circle cx="500" cy="700" r="1" />
    
    <circle cx="600" cy="100" r="1" />
    <circle cx="600" cy="200" r="1" />
    <circle cx="600" cy="300" r="1" />
    <circle cx="600" cy="400" r="1" />
    <circle cx="600" cy="500" r="1" />
    <circle cx="600" cy="600" r="1" />
    <circle cx="600" cy="700" r="1" />
    
    <circle cx="700" cy="100" r="1" />
    <circle cx="700" cy="200" r="1" />
    <circle cx="700" cy="300" r="1" />
    <circle cx="700" cy="400" r="1" />
    <circle cx="700" cy="500" r="1" />
    <circle cx="700" cy="600" r="1" />
    <circle cx="700" cy="700" r="1" />
  </g>
  
  <!-- Tactical markers and elements -->
  <g stroke="#14786c" fill="none" opacity="0.4">
    <!-- Targeting crosshairs -->
    <circle cx="400" cy="400" r="100" stroke-width="0.5" />
    <line x1="390" y1="400" x2="410" y2="400" stroke-width="0.5" />
    <line x1="400" y1="390" x2="400" y2="410" stroke-width="0.5" />
    
    <!-- Sector divisions -->
    <path d="M0,0 L400,400" stroke-width="0.3" />
    <path d="M800,0 L400,400" stroke-width="0.3" />
    <path d="M0,800 L400,400" stroke-width="0.3" />
    <path d="M800,800 L400,400" stroke-width="0.3" />
    
    <!-- Tactical zone markers -->
    <rect x="150" y="150" width="100" height="100" stroke-width="0.5" stroke-dasharray="5,5" />
    <rect x="550" y="150" width="100" height="100" stroke-width="0.5" stroke-dasharray="5,5" />
    <rect x="150" y="550" width="100" height="100" stroke-width="0.5" stroke-dasharray="5,5" />
    <rect x="550" y="550" width="100" height="100" stroke-width="0.5" stroke-dasharray="5,5" />
  </g>
</svg>
