<?xml version="1.0" encoding="UTF-8"?>
<!DOCTYPE svg PUBLIC "-//W3C//DTD SVG 1.1//EN" "http://www.w3.org/Graphics/SVG/1.1/DTD/svg11.dtd">
<!-- Creator: CorelDRAW Standard 2024 -->
<svg xmlns="http://www.w3.org/2000/svg" xml:space="preserve" width="9.41907in" height="1.15776in" version="1.1" style="shape-rendering:geometricPrecision; text-rendering:geometricPrecision; image-rendering:optimizeQuality; fill-rule:evenodd; clip-rule:evenodd"
viewBox="0 0 9419.07 1157.76"
 xmlns:xlink="http://www.w3.org/1999/xlink"
 xmlns:xodm="http://www.corel.com/coreldraw/odm/2003">
 <defs>
  <style type="text/css">
   <![CDATA[
    .fil0 {fill:none;fill-rule:nonzero}
    .fil1 {fill:#FEB300;fill-rule:nonzero}
   ]]>
  </style>
 </defs>
 <g id="Layer_x0020_1">
  <metadata id="CorelCorpID_0Corel-Layer"/>
  <path class="fil0" d="M-0 35.78l234.31 0 0 1087.91 -234.31 0 0 -1087.91zm725.42 0l234.21 0 0 1087.91 -234.21 0 0 -1087.91zm-396.69 429.19l302.6 0 0 227.95 -302.6 0 0 -227.95zm847 -429.19l234.32 0 0 1087.91 -234.32 0 0 -1087.91zm367.63 860.41l427.64 0 0 227.5 -427.64 0 0 -227.5zm0 -429.65l427.64 0 0 227.95 -427.64 0 0 -227.95zm0 -430.76l427.64 0 0 227.5 -427.64 0 0 -227.5zm630.89 0l234.21 0 0 1087.91 -234.21 0 0 -1087.91zm335.11 860.41l315.55 0 0 227.5 -315.55 0 0 -227.5zm422.72 -860.41l234.21 0 0 1087.91 -234.21 0 0 -1087.91zm335 860.41l315.67 0 0 227.5 -315.67 0 0 -227.5zm422.72 -860.41l234.32 0 0 1087.91 -234.32 0 0 -1087.91zm725.42 0l234.21 0 0 1087.91 -234.21 0 0 -1087.91zm-396.69 429.19l302.6 0 0 227.95 -302.6 0 0 -227.95zm1034.06 182.25c8.72,41.35 23.35,78.44 44.03,111.62 20.67,32.74 45.48,61.24 74.64,85.26 29.39,23.91 61.9,42.24 97.66,55.2 35.76,12.96 74.2,19.44 115.54,19.44 81.24,0 151.63,-24.03 211.19,-72.19 59.89,-48.5 100.56,-114.87 122.35,-199.34l235.78 0c-9.83,73.63 -31.18,141.35 -64.26,203.25 -33.19,61.69 -74.97,115.09 -125.48,160.02 -50.28,45.03 -107.72,80.11 -172.31,105.26 -64.36,24.81 -132.85,37.33 -205.71,37.33 -72.52,0 -141.35,-12.74 -206.39,-38.11 -65.15,-25.7 -123.24,-61.35 -174.31,-106.83 -50.84,-45.59 -92.85,-99.11 -125.93,-160.79 -33.08,-61.91 -53.87,-128.62 -62.24,-200.13l235.44 0zm-235.44 -131.85c8.38,-71.41 29.17,-138 62.24,-199.69 33.07,-61.91 75.09,-115.65 125.93,-161.13 51.07,-45.59 109.17,-81.02 174.31,-106.49 65.04,-25.58 133.87,-38.43 206.39,-38.43 72.86,0 141.35,12.51 205.71,37.65 64.59,24.92 122.03,59.89 172.31,104.81 50.51,45.03 92.29,98.55 125.48,160.46 33.08,61.67 54.42,129.28 64.26,202.81l-235.78 0c-21.79,-84.37 -62.46,-150.74 -122.35,-198.9 -59.56,-48.38 -129.96,-72.63 -211.19,-72.63 -41.34,0 -79.78,6.48 -115.54,19.44 -35.76,12.97 -68.28,31.52 -97.66,55.65 -29.17,23.8 -53.97,52.52 -74.64,86.16 -20.68,33.63 -35.31,70.39 -44.03,110.29l-235.44 0zm1676.22 629.32c-52.96,-8.72 -102.13,-25.81 -147.72,-51.17 -45.48,-25.48 -86.27,-57.1 -122.25,-94.87 -40,-44.47 -68.72,-93.08 -86.15,-145.7 -17.21,-52.75 -25.81,-118.67 -25.81,-197.79l0 -619.37 234.21 0 0 598.37c0,42.34 2.12,78.22 6.36,107.6 4.25,29.05 12.07,53.97 23.47,74.64 11.4,20.56 26.6,38 45.59,51.96 19.11,14.09 43.25,26.48 72.3,37.33l0 239.01zm128.62 -239.01c29.16,-9.72 53.19,-21.69 72.3,-35.76 19.1,-13.96 34.52,-31.84 46.48,-53.52 11.85,-19.67 20,-42.69 24.14,-69.17 4.58,-26.7 6.81,-64.36 6.81,-113.07l0 -598.37 234.21 0 0 619.37c0,79.12 -8.72,145.04 -26.15,197.79 -17.54,52.63 -46.26,101.24 -86.15,145.7 -35.76,38.89 -76.88,70.73 -123.48,95.65 -46.59,24.92 -95.98,41.68 -148.16,50.4l0 -239.01zm590.1 -422.83l234.21 204.93 0 435.9 -234.21 0 0 -640.83zm0 -172.3l0 -310.53 725.42 642.39 0 -606.63 234.21 0 0 1121.98 -959.63 -847.21zm1177.3 -274.77l234.32 0 0 1087.91 -234.32 0 0 -1087.91zm364.5 858.39l84.58 0c60.56,0 110.07,-6.7 148.5,-20.22 38.67,-13.52 74.2,-36.54 106.83,-69.06 61.68,-63.81 92.41,-138.11 92.41,-222.81 0,-52.07 -11.62,-101.24 -34.87,-147.28 -23.35,-46.03 -55.43,-83.57 -96.54,-112.74 -15.31,-10.84 -30.84,-20.12 -46.37,-27.82 -15.64,-7.6 -32.74,-13.86 -51.29,-18.67 -18.54,-4.69 -39.44,-7.93 -62.69,-9.5 -23.35,-1.79 -50.17,-2.8 -80.56,-2.8l-60 0 0 -227.5 83.02 0c86.83,0 160.8,10.39 221.92,30.95 61.13,20.45 117.78,53.41 169.96,98.89 61.68,55.32 108.72,118.11 141.35,188.18 32.52,69.94 48.83,144.93 48.83,225.15 0,91.07 -21,176.67 -62.8,256.89 -41.56,80.23 -99.78,146.38 -174.65,198.45 -45.59,31.51 -94.64,54.31 -147.27,68.39 -52.41,13.96 -115.09,21 -187.84,21l-92.52 0 0 -229.52zm0 0"/>
  <path class="fil1" d="M0.32 35.75l234.2 0 0 1087.91 -234.2 0 0 -1087.91zm724.98 0l234.2 0 0 1087.91 -234.2 0 0 -1087.91zm-396.46 429.53l302.15 0 0 227.51 -302.15 0 0 -227.51zm0 0z"/>
  <path class="fil1" d="M1176.04 35.75l234.21 0 0 1087.91 -234.21 0 0 -1087.91zm367.41 860.41l427.74 0 0 227.5 -427.74 0 0 -227.5zm0 -429.54l427.74 0 0 227.95 -427.74 0 0 -227.95zm0 -430.87l427.74 0 0 227.5 -427.74 0 0 -227.5zm0 0z"/>
  <path class="fil1" d="M2174.5 35.75l234.21 0 0 1087.91 -234.21 0 0 -1087.91zm334.78 860.41l315.56 0 0 227.5 -315.56 0 0 -227.5zm0 0z"/>
  <path class="fil1" d="M2932.3 35.75l234.2 0 0 1087.91 -234.2 0 0 -1087.91zm334.78 860.41l315.55 0 0 227.5 -315.55 0 0 -227.5zm0 0z"/>
  <path class="fil1" d="M3690.09 35.75l234.21 0 0 1087.91 -234.21 0 0 -1087.91zm724.98 0l234.21 0 0 1087.91 -234.21 0 0 -1087.91zm-396.46 429.53l302.15 0 0 227.51 -302.15 0 0 -227.51zm0 0z"/>
  <path class="fil1" d="M5052.64 647.2c8.6,41.12 23.25,78.22 43.8,111.29 20.56,33.07 45.37,61.57 74.65,85.37 29.5,23.91 62.13,42.35 97.88,55.43 35.76,13.19 74.2,19.66 115.32,19.66 81.35,0 151.74,-24.13 211.41,-72.4 59.56,-48.27 100.23,-114.65 122.02,-199.34l236 0c-9.83,73.63 -31.28,141.46 -64.36,203.37 -33.07,61.68 -74.87,115.09 -125.15,160.01 -50.39,45.04 -107.94,80.01 -172.53,105.04 -64.37,24.69 -132.98,37.1 -205.61,37.1 -72.74,0 -141.57,-12.74 -206.5,-37.99 -65.03,-25.59 -122.92,-61.01 -173.87,-106.38 -50.95,-45.6 -92.97,-99.23 -126.05,-160.91 -33.07,-61.9 -53.97,-128.73 -62.57,-200.24l235.55 0zm-235.55 -131.86c8.61,-71.52 29.5,-138.11 62.57,-199.8 33.08,-61.68 75.1,-115.31 126.05,-160.9 50.95,-45.59 108.83,-81.02 173.87,-106.38 64.92,-25.59 133.76,-38.44 206.5,-38.44 72.63,0 141.24,12.52 205.61,37.54 64.59,24.81 122.13,59.67 172.53,104.59 50.28,45.03 92.07,98.56 125.15,160.46 33.07,61.67 54.53,129.39 64.36,202.92l-236 0c-21.79,-84.26 -62.46,-150.63 -122.02,-198.9 -59.67,-48.28 -130.06,-72.41 -211.41,-72.41 -41.13,0 -79.56,6.59 -115.32,19.66 -35.75,12.85 -68.38,31.18 -97.88,54.98 -29.28,23.91 -54.09,52.63 -74.65,86.27 -20.56,33.74 -35.2,70.5 -43.8,110.4l-235.55 0zm0 0z"/>
  <path class="fil1" d="M6493.37 1144.67c-53.07,-8.72 -102.36,-25.59 -147.94,-50.96 -45.59,-25.59 -86.26,-57.32 -122.02,-95.2 -40.01,-44.36 -68.72,-92.74 -86.27,-145.26 -17.32,-52.74 -25.93,-118.67 -25.93,-198l0 -619.5 234.21 0 0 598.48c0,42.35 2.01,78.11 6.26,107.27 4.47,29.28 12.29,54.3 23.69,75.09 11.62,20.56 26.81,37.87 45.59,51.85 18.99,14.08 43.13,26.59 72.41,37.54l0 238.68zm128.72 -238.68c29.17,-9.83 53.19,-21.67 71.96,-35.76 18.99,-14.3 34.53,-32.29 46.48,-54.08 11.85,-19.33 19.89,-42.23 24.14,-68.83 4.47,-26.48 6.7,-64.14 6.7,-113.09l0 -598.48 234.21 0 0 619.5c0,79.33 -8.72,145.26 -25.93,198 -17.31,52.52 -46.04,100.9 -86.26,145.26 -35.76,39.11 -77.09,71.07 -123.81,96.1 -46.48,24.8 -95.65,41.35 -147.5,50.06l0 -238.68zm0 0z"/>
  <path class="fil1" d="M7212.37 483.17l234.21 204.71 0 435.78 -234.21 0 0 -640.5zm0 -172.53l0 -310.63 724.98 642.28 0 -606.53 234.21 0 0 1121.88 -959.19 -847zm0 0z"/>
  <path class="fil1" d="M8389.71 35.75l234.21 0 0 1087.91 -234.21 0 0 -1087.91zm364.28 858.62l84.48 0c60.79,0 110.4,-6.71 148.85,-20.12 38.43,-13.63 73.86,-36.76 106.38,-69.28 61.67,-64.03 92.52,-138.22 92.52,-222.59 0,-52.07 -11.62,-101.12 -34.87,-147.05 -23.24,-46.15 -55.42,-84.03 -96.54,-113.53 -15.2,-10.73 -30.73,-19.78 -46.49,-27.26 -15.86,-7.71 -32.96,-13.97 -51.4,-18.77 -18.21,-5.04 -39.11,-8.27 -62.57,-9.83 -23.24,-1.79 -50.06,-2.69 -80.44,-2.69l-59.9 0 0 -227.5 82.69 0c86.71,0 160.57,10.28 221.69,30.84 61.35,20.56 118.11,53.63 170.29,99.23 61.68,55.42 108.73,118.22 141.24,188.17 32.74,69.73 49.17,144.7 49.17,224.82 0,91.18 -21.01,176.88 -63.02,257 -41.79,80.23 -100,146.38 -174.76,198.45 -45.36,31.28 -94.31,54.09 -147.04,68.38 -52.52,14.08 -115.09,21.01 -187.73,21.01l-92.52 0 0 -229.29zm0 0z"/>
 </g>
</svg>
